<svg width="16" height="16" viewBox="0 0 16 16" fill="none" xmlns="http://www.w3.org/2000/svg">
<g clip-path="url(#clip0_1_30)">
<path d="M11.6263 3.20409H11.2265V2.33058C11.7772 2.13597 12.1078 1.57261 12.0089 0.996813C11.9101 0.420867 11.4109 0 10.8266 0C10.2423 0 9.74305 0.420867 9.64421 0.996813C9.54536 1.57261 9.87588 2.13597 10.4266 2.33058V3.20409H5.62811V2.33058C6.17901 2.13597 6.50938 1.57261 6.41068 0.996813C6.31183 0.420867 5.81262 0 5.22833 0C4.64403 0 4.14468 0.420867 4.04598 0.996813C3.94713 1.57261 4.2775 2.13597 4.8284 2.33058V3.20409H4.42848C3.32476 3.20527 2.43031 4.09972 2.42914 5.20343V12.0013C2.43031 13.1052 3.32476 13.9996 4.42848 14.0008H5.62811V15.6002C5.62825 15.7456 5.70718 15.8795 5.83429 15.9499C5.9614 16.0203 6.11678 16.0162 6.23993 15.9392L9.34181 14.0008H11.6263C12.7301 13.9998 13.6247 13.1052 13.6257 12.0013V5.20343C13.6247 4.09972 12.7301 3.20512 11.6263 3.20409ZM6.02803 5.60336C6.69023 5.60409 7.22693 6.14079 7.22766 6.80299C7.22766 7.02382 7.04872 7.20277 6.82774 7.20277C6.60691 7.20277 6.42796 7.02382 6.42796 6.80299C6.42796 6.58216 6.24886 6.40306 6.02803 6.40306C5.8072 6.40306 5.62811 6.58216 5.62811 6.80299C5.62811 7.02382 5.44916 7.20277 5.22833 7.20277C5.0075 7.20277 4.8284 7.02382 4.8284 6.80299C4.82913 6.14079 5.36583 5.60409 6.02803 5.60336ZM11.0054 10.5596C10.0747 10.9985 9.05625 11.2197 8.02737 11.2063C6.99849 11.2197 5.98015 10.9986 5.04938 10.5596C4.85183 10.4609 4.77188 10.2206 4.87058 10.023C4.96942 9.8255 5.20958 9.7454 5.40713 9.84424C6.90081 10.5908 9.15437 10.5908 10.6478 9.84424C10.8453 9.7454 11.0855 9.8255 11.1843 10.023C11.283 10.2206 11.2029 10.4609 11.0054 10.5596ZM10.8266 7.20277C10.7205 7.20292 10.6188 7.16074 10.5438 7.08576C10.4688 7.01079 10.4266 6.90901 10.4266 6.80299C10.4266 6.58216 10.2477 6.40306 10.0269 6.40306C9.80602 6.40306 9.62693 6.58216 9.62693 6.80299C9.62693 7.02382 9.44798 7.20277 9.227 7.20277C9.00617 7.20277 8.82722 7.02382 8.82722 6.80299C8.82722 6.14035 9.36422 5.60336 10.0269 5.60336C10.6893 5.60336 11.2265 6.14035 11.2265 6.80299C11.2265 6.90901 11.1845 7.01079 11.1093 7.08576C11.0344 7.16074 10.9326 7.20292 10.8266 7.20277Z" fill="white"/>
<path d="M14.8254 6.40308H14.4255V10.4019H14.8254C15.4876 10.4012 16.0243 9.86446 16.025 9.20227V7.60271C16.0243 6.94051 15.4876 6.40381 14.8254 6.40308Z" fill="white"/>
<path d="M0.0298767 7.60271V9.20227C0.0306089 9.86446 0.567309 10.4012 1.22951 10.4019H1.62943V6.40308H1.22951C0.567309 6.40381 0.0306089 6.94051 0.0298767 7.60271Z" fill="white"/>
</g>
<defs>
<clipPath id="clip0_1_30">
<rect width="16" height="16" fill="white"/>
</clipPath>
</defs>
</svg>
