<svg width="22" height="22" viewBox="0 0 22 22" fill="none" xmlns="http://www.w3.org/2000/svg">
<path d="M16.3258 5.03249V5.71083L13.0808 3.83166C11.8525 3.12583 10.1383 3.12583 8.91916 3.83166L5.67416 5.71999V5.03249C5.67416 2.96999 6.80166 1.83333 8.86416 1.83333H13.1358C15.1983 1.83333 16.3258 2.96999 16.3258 5.03249Z" fill="url(#paint0_linear_2_34)"/>
<path d="M16.3533 7.30583L16.225 7.24167L14.9783 6.52667L12.3933 5.0325C11.605 4.57417 10.395 4.57417 9.60668 5.0325L7.02168 6.5175L5.77501 7.25083L5.61001 7.33333C4.00584 8.415 3.89584 8.61667 3.89584 10.3492V14.4925C3.89584 16.225 4.00584 16.4267 5.64668 17.5358L9.60668 19.8183C10.0008 20.0567 10.4958 20.1575 11 20.1575C11.495 20.1575 11.9992 20.0475 12.3933 19.8183L16.39 17.5083C18.0033 16.4267 18.1042 16.2342 18.1042 14.4925V10.3492C18.1042 8.61667 17.9942 8.415 16.3533 7.30583ZM13.5575 12.375L12.9983 13.0625C12.9067 13.1633 12.8425 13.3558 12.8517 13.4933L12.9067 14.3733C12.9433 14.9142 12.5583 15.1892 12.0542 14.9967L11.2383 14.6667C11.11 14.6208 10.8992 14.6208 10.7708 14.6667L9.95501 14.9875C9.45084 15.1892 9.06584 14.905 9.10251 14.3642L9.15751 13.4842C9.16668 13.3467 9.10251 13.1542 9.01084 13.0533L8.44251 12.375C8.09418 11.9625 8.25001 11.5042 8.77251 11.3667L9.62501 11.1467C9.76251 11.11 9.91834 10.9817 9.99168 10.8717L10.4683 10.1383C10.7617 9.68 11.2292 9.68 11.5317 10.1383L12.0083 10.8717C12.0817 10.9908 12.2467 11.11 12.375 11.1467L13.2275 11.3667C13.75 11.5042 13.9058 11.9625 13.5575 12.375Z" fill="url(#paint1_linear_2_34)"/>
<defs>
<linearGradient id="paint0_linear_2_34" x1="11" y1="1.83333" x2="11" y2="5.71999" gradientUnits="userSpaceOnUse">
<stop stop-color="#64B06B"/>
<stop offset="1" stop-color="#387167"/>
</linearGradient>
<linearGradient id="paint1_linear_2_34" x1="11" y1="4.68875" x2="11" y2="20.1575" gradientUnits="userSpaceOnUse">
<stop stop-color="#64B06B"/>
<stop offset="1" stop-color="#387167"/>
</linearGradient>
</defs>
</svg>
