<svg width="22" height="22" viewBox="0 0 22 22" fill="none" xmlns="http://www.w3.org/2000/svg">
<path d="M12.1344 8.66937C11.7975 8.99936 11.7975 9.53563 12.1344 9.86561C12.4644 10.2025 13.0006 10.2025 13.3306 9.86561C13.6606 9.53563 13.6606 8.99936 13.3306 8.66937C13.0006 8.33938 12.4644 8.33938 12.1344 8.66937Z" fill="url(#paint0_radial_2_16)"/>
<path d="M11 1.375C5.68564 1.375 1.375 5.6856 1.375 11C1.375 16.3144 5.68564 20.625 11 20.625C16.3144 20.625 20.625 16.3144 20.625 11C20.625 5.6856 16.3144 1.375 11 1.375ZM6.68248 11.5019L4.91564 11.275C4.70252 11.2406 4.51688 11.0825 4.46187 10.8694C4.41374 10.6494 4.4894 10.4225 4.66811 10.2919L7.16374 8.47001C7.30124 8.35999 7.48688 8.3325 7.65188 8.38751L8.65564 8.71061L6.68935 11.5019H6.68248ZM13.53 14.8362L11.7081 17.3318C11.5981 17.4694 11.44 17.5519 11.2681 17.5519C11.2269 17.5519 11.1788 17.545 11.1306 17.5312C10.9175 17.4831 10.7525 17.2975 10.725 17.0775L10.4981 15.3175L10.4913 15.3106L13.2825 13.3444L13.6125 14.3481C13.6675 14.5131 13.64 14.6987 13.53 14.8362ZM15.5994 8.38751C15.5375 9.27437 15.2831 10.1131 14.8706 10.8625C14.4444 11.6119 13.86 12.265 13.1381 12.7737L9.78999 15.1387C9.69374 15.2075 9.58375 15.2419 9.48061 15.2419C9.33626 15.2419 9.19876 15.1868 9.09561 15.0838L6.91625 12.9043C6.73061 12.7188 6.70312 12.43 6.85435 12.21L9.22624 8.86188C10.2438 7.41122 11.8387 6.51749 13.6056 6.40062L15.1181 6.29748C15.2762 6.2906 15.4275 6.34561 15.5375 6.46247C15.6544 6.57249 15.7094 6.72372 15.7025 6.88188L15.5994 8.38751Z" fill="url(#paint1_radial_2_16)"/>
<defs>
<radialGradient id="paint0_radial_2_16" cx="0" cy="0" r="1" gradientUnits="userSpaceOnUse" gradientTransform="translate(12.7299 8.42188) rotate(90) scale(1.18394 1.18396)">
<stop stop-color="#66C6F9"/>
<stop offset="1" stop-color="#2672E2"/>
</radialGradient>
<radialGradient id="paint1_radial_2_16" cx="0" cy="0" r="1" gradientUnits="userSpaceOnUse" gradientTransform="translate(11 1.375) rotate(90) scale(13.4349)">
<stop stop-color="#66C6F9"/>
<stop offset="1" stop-color="#2672E2"/>
</radialGradient>
</defs>
</svg>
