<svg width="40" height="40" viewBox="0 0 40 40" fill="none" xmlns="http://www.w3.org/2000/svg">
<g clip-path="url(#clip0_1_778)">
<path d="M20 40C30.5711 40 39.1406 31.0457 39.1406 20C39.1406 8.9543 30.5711 0 20 0C9.42892 0 0.859375 8.9543 0.859375 20C0.859375 31.0457 9.42892 40 20 40Z" fill="#E88102"/>
<path d="M20 37.8906C30.4632 37.8906 38.9453 29.4085 38.9453 18.9453C38.9453 8.48211 30.4632 0 20 0C9.53679 0 1.05469 8.48211 1.05469 18.9453C1.05469 29.4085 9.53679 37.8906 20 37.8906Z" fill="#FDD835"/>
<path opacity="0.5" d="M27.5625 1.57031L2.625 26.5C1.78906 24.5859 1.26562 22.5078 1.10938 20.3281L21.3828 0.046875C23.5625 0.210938 25.6406 0.734375 27.5625 1.57031Z" fill="white"/>
<path opacity="0.5" d="M36.5078 9.64844L10.7031 35.4531C9.09375 34.5469 7.64063 33.4141 6.36719 32.0938L33.1563 5.3125C34.4688 6.57813 35.6016 8.03906 36.5078 9.64844Z" fill="white"/>
<path opacity="0.5" d="M32.3828 4.60156L5.66406 31.3203C5.25 30.8359 4.85156 30.3281 4.48438 29.8047L30.8672 3.42188C31.3906 3.78906 31.8984 4.1875 32.3828 4.60156Z" fill="white"/>
<path opacity="0.5" d="M38.3516 14.2188L15.2734 37.2969C14.5781 37.1172 13.8984 36.8984 13.2344 36.6484L37.7031 12.1797C37.9531 12.8438 38.1719 13.5234 38.3516 14.2188Z" fill="white"/>
<path opacity="0.5" d="M38.9453 18.9453C38.9453 19.0781 38.9453 19.2031 38.9375 19.3359C38.7344 9.05469 30.3359 0.78125 20 0.78125C9.66406 0.78125 1.26563 9.05469 1.0625 19.3359C1.0625 19.2031 1.05469 19.0781 1.05469 18.9453C1.05469 8.48438 9.53906 0 20 0C30.4609 0 38.9453 8.48438 38.9453 18.9453Z" fill="white"/>
<path opacity="0.5" d="M35.3906 19.7656C35.3906 27.9609 28.7422 34.6094 20.5469 34.6094C15.9453 34.6094 11.8281 32.5078 9.10156 29.2188C11.8125 32.1484 15.6875 33.9844 20 33.9844C28.1953 33.9844 34.8438 27.3359 34.8438 19.1406C34.8438 15.5469 33.5703 12.2578 31.4453 9.6875C33.8906 12.3359 35.3906 15.875 35.3906 19.7656Z" fill="white"/>
<path d="M20 33.9844C28.198 33.9844 34.8438 27.3386 34.8438 19.1406C34.8438 10.9426 28.198 4.29688 20 4.29688C11.802 4.29688 5.15625 10.9426 5.15625 19.1406C5.15625 27.3386 11.802 33.9844 20 33.9844Z" fill="#F39E09"/>
<path d="M31.25 9.45312C28.6484 7.21094 25.2656 5.85938 21.5625 5.85938C13.3672 5.85938 6.71875 12.5078 6.71875 20.7031C6.71875 24.4062 8.07031 27.7891 10.3125 30.3906C7.15625 27.6641 5.15625 23.6406 5.15625 19.1406C5.15625 10.9453 11.8047 4.29688 20 4.29688C24.4922 4.29688 28.5234 6.29687 31.25 9.45312Z" fill="#E88102"/>
<path d="M19.0703 15.3594C18.8047 15.6641 18.6641 16.0859 18.6641 16.625C18.6641 17.1641 18.8203 17.6094 19.1328 17.9297C19.4453 18.25 19.9453 18.5547 20.6328 18.8516C21.3203 19.1406 21.9687 19.4453 22.5781 19.7578C23.1875 20.0703 23.7109 20.4297 24.1563 20.8281C24.6016 21.2266 24.9453 21.6953 25.1953 22.2266C25.2891 22.4297 25.5703 22.8125 25.5703 22.8125C25.5703 22.8125 25.5703 24.1094 25.5703 24.1484C25.5703 25.4141 25.1719 26.4453 24.3672 27.2422C23.5625 28.0391 22.4766 28.5078 21.0938 28.6406V30.8594H19.3281V28.6172C17.7187 28.4453 16.4844 27.8984 15.6172 26.9609C14.7578 26.0234 14.3281 24.7969 14.3281 23.2656V22.0937L18.0625 23.2656C18.0625 24.1094 18.25 24.75 18.625 25.1875C19 25.625 19.5312 25.8438 20.2187 25.8438C20.7187 25.8438 21.1172 25.6953 21.4062 25.3906C21.6953 25.0859 21.8359 24.6797 21.8359 24.1563C21.8359 23.5703 21.6953 23.1172 21.4062 22.7812C21.1172 22.4453 20.6094 22.1328 19.8906 21.8359C19.1641 21.5391 18.5 21.2422 17.8828 20.9375C17.2656 20.6328 16.7422 20.2812 16.2969 19.8828C15.8516 19.4844 15.5156 19.0234 15.2734 18.5C15.0391 17.9766 14.9219 17.3437 14.9219 16.5937V15.3516C14.9219 15.3516 15.6172 14.0469 16.1875 13.5078C17.0312 12.6953 18.1563 12.2266 19.5547 12.0938V9.76562H21.3203V12.1484C22.6719 12.3516 23.7344 12.9062 24.5078 13.8203C25.0391 14.4453 25.6641 16.125 25.6641 16.125V17.2969H21.9141C21.9141 16.5312 21.7656 15.9375 21.4687 15.5234C21.1719 15.1094 20.75 14.9062 20.2031 14.9062C19.7188 14.8984 19.3438 15.0547 19.0703 15.3594Z" fill="#DB6704"/>
<path d="M21.8359 22.9922C21.8359 22.4062 21.6953 21.9531 21.4062 21.6172C21.1172 21.2813 20.6094 20.9688 19.8906 20.6719C19.1641 20.375 18.5 20.0781 17.8828 19.7734C17.2656 19.4688 16.7422 19.1172 16.2969 18.7188C15.8516 18.3203 15.5156 17.8594 15.2734 17.3359C15.0391 16.8125 14.9219 16.1719 14.9219 15.4297C14.9219 14.1797 15.3437 13.1484 16.1875 12.3438C17.0312 11.5391 18.1562 11.0625 19.5547 10.9297V8.59375H21.3203V10.9766C22.6719 11.1797 23.7344 11.7344 24.5078 12.6484C25.2813 13.5625 25.6641 14.7187 25.6641 16.125H21.9141C21.9141 15.3594 21.7656 14.7656 21.4687 14.3516C21.1719 13.9375 20.75 13.7344 20.2031 13.7344C19.7188 13.7344 19.3359 13.8906 19.0703 14.1953C18.8047 14.5 18.6641 14.9219 18.6641 15.4609C18.6641 16 18.8203 16.4453 19.1328 16.7656C19.4453 17.0859 19.9453 17.3906 20.625 17.6875C21.3125 17.9766 21.9609 18.2812 22.5703 18.5938C23.1797 18.9062 23.7031 19.2656 24.1484 19.6641C24.5938 20.0625 24.9375 20.5312 25.1875 21.0625C25.4375 21.5938 25.5625 22.2344 25.5625 22.9766C25.5625 24.2422 25.1641 25.2734 24.3594 26.0703C23.5547 26.8672 22.4687 27.3359 21.0859 27.4688V29.6875H19.3203V27.4453C17.7109 27.2734 16.4766 26.7266 15.6094 25.7891C14.75 24.8516 14.3203 23.625 14.3203 22.0937H18.0547C18.0547 22.9375 18.2422 23.5781 18.6172 24.0156C18.9922 24.4531 19.5234 24.6719 20.2109 24.6719C20.7109 24.6719 21.1094 24.5234 21.3984 24.2188C21.6875 23.9141 21.8359 23.5156 21.8359 22.9922Z" fill="#FDD835"/>
<path opacity="0.5" d="M16.1875 12.3438C16.6406 11.9062 17.1797 11.5703 17.7969 11.3281L15.1484 13.9844C15.3516 13.3594 15.6953 12.8203 16.1875 12.3438Z" fill="white"/>
<path opacity="0.5" d="M20.5312 8.59375L19.5547 9.57031V8.59375H20.5312Z" fill="white"/>
<path opacity="0.5" d="M25.1641 20.9922L18.7812 27.375C17.4375 27.1484 16.3828 26.6172 15.625 25.7969C15.1328 25.2578 14.7812 24.625 14.5703 23.8984L16.3672 22.1016H18.0703C18.0703 22.9453 18.2578 23.5859 18.6328 24.0234C19.0078 24.4609 19.5391 24.6797 20.2266 24.6797C20.7266 24.6797 21.125 24.5313 21.4141 24.2266C21.7031 23.9219 21.8438 23.5156 21.8438 22.9922C21.8438 22.4062 21.7031 21.9531 21.4141 21.6172C21.125 21.2813 20.6172 20.9688 19.8984 20.6719C19.3828 20.4609 18.8984 20.25 18.4375 20.0312L20.75 17.7188C21.3984 18 22.0078 18.2812 22.5859 18.5781C23.1953 18.8906 23.7187 19.25 24.1641 19.6484C24.5859 20.0391 24.9219 20.4844 25.1641 20.9922Z" fill="white"/>
<path opacity="0.5" d="M25.6641 16.1172H22.3438L25.0391 13.4219C25.4531 14.1875 25.6641 15.0859 25.6641 16.1172Z" fill="white"/>
<path opacity="0.5" d="M14.3359 22.0938H14.8906L14.3594 22.625C14.3438 22.4531 14.3359 22.2734 14.3359 22.0938Z" fill="white"/>
<path opacity="0.5" d="M19.1328 16.7578C19.2891 16.9219 19.4922 17.0781 19.75 17.2344L17.4375 19.5469C17.0078 19.3047 16.625 19.0313 16.2969 18.7266C16.1641 18.6094 16.0469 18.4844 15.9375 18.3594L18.6797 15.6172C18.7031 16.0859 18.8594 16.4688 19.1328 16.7578Z" fill="white"/>
<path opacity="0.5" d="M24.4297 12.5547L21.8203 15.1641C21.75 14.8438 21.6328 14.5703 21.4766 14.3516C21.2422 14.0234 20.9297 13.8281 20.5391 13.7578L22.875 11.4219C23.4766 11.6953 23.9922 12.0703 24.4297 12.5547Z" fill="white"/>
<path opacity="0.5" d="M20.1875 29.6875L21.0938 28.7812V29.6875H20.1875Z" fill="white"/>
<path opacity="0.5" d="M25.3281 24.5469C25.1328 25.125 24.8125 25.625 24.375 26.0625C23.9375 26.5 23.4141 26.8359 22.8047 27.0703L25.3281 24.5469Z" fill="white"/>
<path opacity="0.25" d="M32.3828 10.9453C22.7734 14.3203 15.0547 21.7344 11.2734 31.1484C10.9453 30.9062 10.625 30.6562 10.3125 30.3828C8.07031 27.7812 6.71875 24.3984 6.71875 20.7031C6.71875 12.5078 13.3672 5.85938 21.5625 5.85938C25.2656 5.85938 28.6484 7.21094 31.2422 9.45312C31.6562 9.92969 32.0312 10.4297 32.3828 10.9453Z" fill="white"/>
</g>
<defs>
<clipPath id="clip0_1_778">
<rect width="40" height="40" fill="white"/>
</clipPath>
</defs>
</svg>
