<svg width="22" height="22" viewBox="0 0 22 22" fill="none" xmlns="http://www.w3.org/2000/svg">
<path d="M10.9725 1.83333C5.91251 1.83333 1.80585 5.93999 1.80585 11C1.80585 16.06 5.91251 20.1667 10.9725 20.1667C16.0325 20.1667 20.1392 16.06 20.1392 11C20.1392 5.93999 16.0417 1.83333 10.9725 1.83333ZM14.41 11.3208L11 15.1983L10.5967 15.6567C10.0375 16.2892 9.57918 16.1242 9.57918 15.2717V11.6417H8.02085C7.31501 11.6417 7.12251 11.2108 7.59001 10.6792L11 6.80166L11.4033 6.34333C11.9625 5.71083 12.4208 5.87583 12.4208 6.72833V10.3583H13.9792C14.685 10.3583 14.8775 10.7892 14.41 11.3208Z" fill="#F5B74B"/>
</svg>
