<svg width="16" height="16" viewBox="0 0 16 16" fill="none" xmlns="http://www.w3.org/2000/svg">
<g clip-path="url(#clip0_1_147)">
<path d="M15.7625 9.93748C15.3815 11.4737 14.5534 12.8624 13.3829 13.9279C12.2125 14.9933 10.7523 15.6876 9.18713 15.923C7.62196 16.1583 6.02216 15.924 4.59015 15.2499C3.15814 14.5757 1.9583 13.4919 1.14243 12.1356C0.326559 10.7794 -0.0686619 9.21155 0.00677478 7.63058C0.0822115 6.04962 0.624915 4.52656 1.56621 3.25412C2.50751 1.98168 3.8051 1.01706 5.29479 0.482305C6.78448 -0.0524494 8.39932 -0.133299 9.93498 0.249985C11.9915 0.763282 13.7603 2.07176 14.8529 3.8881C15.9456 5.70444 16.2727 7.88016 15.7625 9.93748Z" fill="#0089CD"/>
<g opacity="0.24">
<path d="M7.99999 16C7.34724 15.9954 6.69748 15.9114 6.06499 15.75C4.01184 15.2339 2.24695 13.925 1.157 12.1102C0.0670409 10.2953 -0.259113 8.12239 0.249992 6.06749C0.633159 4.53283 1.46267 3.14621 2.63368 2.08285C3.80469 1.0195 5.26465 0.327154 6.82904 0.0933121C8.39342 -0.14053 9.99202 0.0946295 11.4228 0.769071C12.8536 1.44351 14.0523 2.52696 14.8675 3.88249C15.5966 5.09703 15.9901 6.48338 16.0078 7.89985C16.0256 9.31631 15.6669 10.7121 14.9684 11.9445C14.27 13.1769 13.2568 14.2018 12.0325 14.9143C10.8081 15.6268 9.41657 16.0015 7.99999 16ZM7.99999 1.49999C6.55011 1.50112 5.14223 1.98696 4.00024 2.88026C2.85824 3.77357 2.04769 5.02304 1.69749 6.42999C1.45964 7.26812 1.3927 8.14552 1.50066 9.01004C1.60862 9.87455 1.88928 10.7085 2.32595 11.4624C2.76262 12.2163 3.34639 12.8748 4.04257 13.3986C4.73875 13.9224 5.53313 14.3009 6.3785 14.5116C7.22386 14.7223 8.10296 14.7609 8.96354 14.6251C9.82413 14.4894 10.6486 14.182 11.3881 13.7212C12.1275 13.2605 12.7668 12.6558 13.2678 11.9431C13.7689 11.2304 14.1216 10.4242 14.305 9.57249C14.7215 7.90033 14.457 6.13119 13.5696 4.65401C12.6821 3.17682 11.2444 2.11249 9.57249 1.69499C9.0581 1.56686 8.5301 1.50139 7.99999 1.49999Z" fill="white"/>
</g>
<g opacity="0.3">
<path d="M15.5225 5.28249L0.102507 9.28249C-0.215895 7.31544 0.211266 5.30036 1.30038 3.63168C2.3895 1.96299 4.06216 0.760832 5.99098 0.26049C7.91979 -0.239852 9.96591 -0.0023523 11.7288 0.926504C13.4918 1.85536 14.8446 3.4087 15.5225 5.28249Z" fill="white"/>
</g>
<path d="M14.305 9.57249C13.9942 10.8201 13.3204 11.9475 12.3688 12.8121C11.4172 13.6768 10.2306 14.2397 8.95896 14.4299C7.68736 14.62 6.38793 14.4288 5.22504 13.8803C4.06215 13.3318 3.08804 12.4508 2.42591 11.3487C1.76379 10.2465 1.4434 8.9728 1.50527 7.68855C1.56715 6.4043 2.0085 5.16725 2.77351 4.13387C3.53852 3.10048 4.59282 2.31719 5.80305 1.88307C7.01328 1.44894 8.32507 1.38349 9.5725 1.69499C11.2444 2.11248 12.6821 3.17681 13.5696 4.654C14.457 6.13119 14.7215 7.90032 14.305 9.57249Z" fill="#0089CD"/>
<path fill-rule="evenodd" clip-rule="evenodd" d="M11.59 5.42248C11.4958 5.24515 11.3442 5.10502 11.16 5.02498C10.9935 4.94242 10.8108 4.89801 10.625 4.89498H5.42249C5.22629 4.88207 5.03063 4.92729 4.85999 5.02498C4.7517 5.06018 4.65161 5.11684 4.56571 5.19158C4.4798 5.26632 4.40983 5.3576 4.35999 5.45998C4.24704 5.64956 4.19796 5.87041 4.21999 6.08998C4.23548 6.29313 4.30734 6.48794 4.42749 6.65248L7.65749 12.285C7.69778 12.3435 7.75148 12.3915 7.81411 12.4249C7.87674 12.4584 7.94648 12.4764 8.01749 12.4775C8.09069 12.4835 8.1641 12.4686 8.22917 12.4346C8.29424 12.4005 8.34828 12.3486 8.38499 12.285L11.635 6.65248C11.7476 6.47419 11.8025 6.26559 11.7925 6.05498C11.7789 5.83053 11.7093 5.61307 11.59 5.42248ZM7.60749 10.5275L5.12499 6.19248L5.02749 5.99998C5.01712 5.94044 5.02866 5.87916 5.05999 5.82748C5.08584 5.76875 5.13328 5.7222 5.19249 5.69748H7.60749V10.5275ZM10.9225 6.02748C10.9375 6.09414 10.9375 6.16332 10.9225 6.22998L8.38499 10.5475V5.71998H10.59C10.6684 5.71152 10.7477 5.72358 10.82 5.75498L10.855 5.78998C10.89 5.78998 10.89 5.85248 10.9225 5.85248C10.94 5.90608 10.94 5.96388 10.9225 6.01748V6.02748Z" fill="white"/>
</g>
<defs>
<clipPath id="clip0_1_147">
<rect width="16.0025" height="16" fill="white"/>
</clipPath>
</defs>
</svg>
