<svg width="15" height="14" viewBox="0 0 15 14" fill="none" xmlns="http://www.w3.org/2000/svg">
<g clip-path="url(#clip0_1_469)">
<path d="M13.8296 5.51163H12.3196C11.913 5.51163 11.543 5.67149 11.2743 5.94725C10.9695 6.245 10.7951 6.67318 10.8387 7.13043C10.9039 7.91448 11.6227 8.48799 12.4068 8.48799H13.8296C14.2361 8.47346 14.5555 8.14665 14.5555 7.74754V6.25209C14.5555 5.85297 14.2361 5.52616 13.8296 5.51163Z" fill="white"/>
<path d="M13.445 9.5769H12.4068C11.0276 9.5769 9.86605 8.5387 9.74979 7.21764C9.68457 6.46265 9.96034 5.70766 10.5119 5.17066C10.9766 4.69143 11.6224 4.42311 12.3196 4.42311H13.4446C13.6552 4.42311 13.8292 4.24871 13.8076 4.03852C13.6477 2.27439 12.4791 1.0696 10.744 0.866141C10.5696 0.837076 10.3882 0.829987 10.1996 0.829987H3.66662C3.46351 0.829987 3.2675 0.844519 3.07857 0.873585C1.2276 1.1054 0.0369873 2.48459 0.0369873 4.45926V9.54074C0.0369873 11.5441 1.66323 13.1704 3.66662 13.1704H10.1999C12.2324 13.1704 13.6336 11.9 13.808 9.96184C13.8296 9.75129 13.6555 9.57725 13.445 9.57725V9.5769ZM8.02217 5.36667H3.66662C3.36887 5.36667 3.12217 5.11997 3.12217 4.82222C3.12217 4.52448 3.36887 4.27778 3.66662 4.27778H8.02217C8.31991 4.27778 8.56662 4.52448 8.56662 4.82222C8.56662 5.11997 8.31991 5.36667 8.02217 5.36667Z" fill="white"/>
</g>
<defs>
<clipPath id="clip0_1_469">
<rect width="14.5185" height="12.4444" fill="white" transform="translate(0.0369873 0.777771)"/>
</clipPath>
</defs>
</svg>
