<svg width="40" height="40" viewBox="0 0 40 40" fill="none" xmlns="http://www.w3.org/2000/svg">
<path fill-rule="evenodd" clip-rule="evenodd" d="M22 1.155L35.32 8.845C35.9281 9.19607 36.433 9.701 36.7841 10.3091C37.1351 10.9171 37.32 11.6069 37.32 12.309V27.691C37.32 28.3931 37.1351 29.0829 36.7841 29.6909C36.433 30.299 35.9281 30.8039 35.32 31.155L22 38.845C21.3919 39.1961 20.7021 39.3809 20 39.3809C19.2978 39.3809 18.6081 39.1961 18 38.845L4.67999 31.155C4.07193 30.8039 3.56699 30.299 3.21592 29.6909C2.86484 29.0829 2.68001 28.3931 2.67999 27.691V12.309C2.68001 11.6069 2.86484 10.9171 3.21592 10.3091C3.56699 9.701 4.07193 9.19607 4.67999 8.845L18 1.155C18.6081 0.803927 19.2978 0.619102 20 0.619102C20.7021 0.619102 21.3919 0.803927 22 1.155Z" fill="url(#paint0_linear_18_412)"/>
<path fill-rule="evenodd" clip-rule="evenodd" d="M24.198 26.417C23.022 26.842 21.931 26.681 21.446 26.617C21.086 26.5639 20.7278 26.4992 20.372 26.423L19.657 29.09L18.015 28.65L18.718 26.026L17.468 25.691L16.765 28.315L15.123 27.875L15.826 25.251L12.596 24.385L13.462 22.503L14.444 22.767C14.774 22.855 14.92 22.861 15.093 22.768C15.266 22.674 15.35 22.483 15.393 22.322L17.213 15.528C17.328 15.102 17.324 14.978 17.187 14.707C17.05 14.435 16.597 14.283 16.338 14.214L15.389 13.959L15.846 12.255L19.076 13.12L19.781 10.488L21.423 10.928L20.718 13.56L21.968 13.895L22.674 11.263L24.316 11.703L23.602 14.367C24.806 14.771 25.655 15.248 26.292 16.049C27.117 17.084 26.71 18.389 26.602 18.698C26.495 19.006 26.195 19.575 25.814 19.892C25.433 20.21 24.653 20.42 24.653 20.42C24.653 20.42 25.405 20.803 25.853 21.375C26.299 21.947 26.515 22.802 26.199 23.885C25.885 24.969 25.372 25.991 24.198 26.417ZM20.79 20.717C19.991 20.446 18.934 20.22 18.934 20.22L17.99 23.742C17.99 23.742 19.073 24.057 19.817 24.199C20.56 24.34 21.361 24.358 21.793 24.251C22.223 24.144 22.763 23.943 22.979 23.138C23.195 22.332 22.749 21.851 22.482 21.615C22.217 21.379 21.589 20.989 20.79 20.718V20.717ZM20.737 18.952C21.342 19.089 22.016 19.122 22.544 18.992C23.072 18.862 23.44 18.532 23.585 17.93C23.73 17.328 23.467 16.714 22.847 16.326C22.227 15.938 21.779 15.801 21.267 15.656C20.755 15.511 20.221 15.416 20.221 15.416L19.371 18.586C19.371 18.586 20.133 18.814 20.737 18.952Z" fill="white"/>
<g clip-path="url(#clip0_18_412)">
<path d="M39.3995 24.8381C36.7283 35.5525 25.8764 42.0731 15.1608 39.4012C4.44954 36.73 -2.07108 25.8775 0.601418 15.1637C3.27142 4.44812 14.1233 -2.07313 24.8358 0.598116C35.5508 3.26937 42.0708 14.1231 39.3995 24.8381Z" fill="#F7931A"/>
<path d="M28.8183 17.1506C29.2164 14.4894 27.1902 13.0587 24.4196 12.1044L25.3183 8.49937L23.1239 7.95249L22.2489 11.4625C21.6721 11.3187 21.0796 11.1831 20.4908 11.0487L21.3721 7.51562L19.1789 6.96874L18.2796 10.5725C17.8021 10.4637 17.3333 10.3562 16.8783 10.2431L16.8808 10.2319L13.8546 9.47624L13.2708 11.82C13.2708 11.82 14.8989 12.1931 14.8646 12.2162C15.7533 12.4381 15.9139 13.0262 15.8871 13.4925L14.8633 17.5994C14.9246 17.615 15.0039 17.6375 15.0914 17.6725C15.0183 17.6544 14.9402 17.6344 14.8596 17.615L13.4246 23.3681C13.3158 23.6381 13.0402 24.0431 12.4189 23.8894C12.4408 23.9212 10.8239 23.4912 10.8239 23.4912L9.73456 26.0031L12.5902 26.715C13.1214 26.8481 13.6421 26.9875 14.1546 27.1187L13.2464 30.765L15.4383 31.3119L16.3377 27.7044C16.9364 27.8669 17.5177 28.0169 18.0864 28.1581L17.1902 31.7487L19.3846 32.2956L20.2927 28.6562C24.0346 29.3644 26.8483 29.0787 28.0327 25.6944C28.9871 22.9694 27.9852 21.3975 26.0164 20.3725C27.4502 20.0419 28.5302 19.0987 28.8183 17.1506ZM23.8046 24.1812C23.1264 26.9062 18.5383 25.4331 17.0508 25.0637L18.2558 20.2331C19.7433 20.6044 24.5133 21.3394 23.8046 24.1812ZM24.4833 17.1112C23.8646 19.59 20.0458 18.3306 18.8071 18.0219L19.8996 13.6406C21.1383 13.9494 25.1277 14.5256 24.4833 17.1112Z" fill="white"/>
</g>
<defs>
<linearGradient id="paint0_linear_18_412" x1="3988.95" y1="2994.08" x2="825.93" y2="1632.9" gradientUnits="userSpaceOnUse">
<stop stop-color="#FE9D39"/>
<stop offset="1" stop-color="#FFC82D"/>
</linearGradient>
<clipPath id="clip0_18_412">
<rect width="40" height="40" fill="white"/>
</clipPath>
</defs>
</svg>
