<svg width="40" height="40" viewBox="0 0 40 40" fill="none" xmlns="http://www.w3.org/2000/svg">
<g clip-path="url(#clip0_18_386)">
<g clip-path="url(#clip1_18_386)">
<path d="M38.8802 14.5074L26.6446 12.7295L21.1726 1.64211C20.694 0.672266 19.3064 0.671797 18.8274 1.64211L13.3555 12.7295L1.12 14.5074C0.0499229 14.663 -0.379843 15.9823 0.395314 16.7378L9.24899 25.3681L7.15883 37.5542C7.07461 38.0448 7.27625 38.5405 7.67906 38.8332C8.08172 39.1257 8.61547 39.1643 9.0561 38.9327L20 33.1793C31.9145 39.443 31.0962 39.083 31.5523 39.083C32.3582 39.083 32.9788 38.3564 32.8412 37.5542L30.7511 25.3681L39.6048 16.7378C40.3791 15.9829 39.9511 14.6631 38.8802 14.5074Z" fill="#F7AC16"/>
<path d="M20.0001 0.913204C19.5013 0.913204 19.0473 1.19672 18.8273 1.64211L13.3555 12.7295L1.12 14.5074C0.0499229 14.663 -0.379843 15.9823 0.395313 16.7378L9.24899 25.3681L7.15883 37.5542C7.07461 38.0448 7.27625 38.5405 7.67906 38.8332C8.08172 39.1257 8.61547 39.1643 9.0561 38.9327L20 33.1793H20.0001V0.913204Z" fill="#F2D422"/>
<path d="M1.12 14.5074C0.0499229 14.663 -0.379843 15.9823 0.395313 16.7378L9.24899 25.3681L7.15883 37.5542C7.07461 38.0448 7.27625 38.5405 7.67906 38.8332C8.08172 39.1257 8.61547 39.1643 9.0561 38.9327L20 33.1793C31.9145 39.443 31.0962 39.083 31.5523 39.083C31.8234 39.083 32.0932 38.9987 32.3209 38.8332L13.3555 12.7295L1.12 14.5074Z" fill="#F7AC16"/>
<path d="M13.9498 23.8629C4.46594 14.6183 4.87359 15.1138 4.74633 14.6343C4.69453 14.4417 4.68391 14.2177 4.74024 13.9813L1.12 14.5073C0.0499229 14.6629 -0.379843 15.9823 0.395313 16.7377L9.24899 25.3681L7.15883 37.5542C7.07461 38.0448 7.27625 38.5406 7.67906 38.8332C8.08172 39.1257 8.61547 39.1643 9.0561 38.9327L12.2738 37.241C11.9428 36.9429 11.7833 36.4941 11.8597 36.049L13.9498 23.8629Z" fill="#F48B19"/>
<path d="M0.395317 16.7378L9.24899 25.3681L7.15883 37.5542C7.07461 38.0448 7.27625 38.5405 7.67907 38.8332C8.08172 39.1257 8.61547 39.1643 9.0561 38.9327L20 33.1793C31.9145 39.443 31.0962 39.083 31.5523 39.083C32.3582 39.083 32.9788 38.3564 32.8412 37.5542L30.7511 25.3681L0.064301 15.3973C-0.0885896 15.9454 0.0644572 16.4155 0.395317 16.7378Z" fill="#F2D422"/>
<path d="M0.395317 16.7378L9.24899 25.3681L7.15883 37.5542C7.07461 38.0448 7.27625 38.5406 7.67907 38.8332C8.08172 39.1257 8.61547 39.1643 9.0561 38.9327L12.2738 37.241C11.9428 36.9429 11.7833 36.4941 11.8597 36.049L13.9498 23.8629L7.86563 17.9322L0.064301 15.3973C-0.0885896 15.9454 0.0644572 16.4155 0.395317 16.7378Z" fill="#EFB616"/>
<path d="M7.15884 37.5542C7.07462 38.0448 7.27626 38.5405 7.67908 38.8332C8.08173 39.1257 8.61548 39.1643 9.05611 38.9327L20 33.1793C31.9145 39.443 31.0962 39.083 31.5523 39.083C32.3582 39.083 32.9788 38.3564 32.8412 37.5542L30.7511 25.3681L39.6049 16.7378C39.9612 16.3904 40.0894 15.8707 39.9357 15.3974L9.249 25.3681L7.15884 37.5542Z" fill="#F7AC16"/>
<path d="M7.15884 37.5542C7.07462 38.0448 7.27626 38.5405 7.67908 38.8332C8.08173 39.1257 8.61548 39.1643 9.05611 38.9327L12.2738 37.241C11.9428 36.9429 11.7833 36.4941 11.8597 36.049L13.9499 23.8629L13.9327 23.8463L9.249 25.3681L7.15884 37.5542Z" fill="#F48B19"/>
<path d="M9.05619 38.9327L20 33.1793C31.9145 39.443 31.0962 39.083 31.5523 39.083C32.3582 39.083 32.9788 38.3564 32.8412 37.5542L30.7511 25.3681L39.6049 16.7378C40.3791 15.9829 39.951 14.6631 38.8801 14.5074L26.6445 12.7295L7.67908 38.8332C8.08173 39.1257 8.61548 39.1643 9.05619 38.9327Z" fill="#F2D422"/>
<path d="M39.9358 15.3973L20 21.8748L7.67908 38.8332C8.08173 39.1257 8.61548 39.1643 9.05611 38.9327L20 33.1793C31.9145 39.443 31.0962 39.083 31.5523 39.083C32.3582 39.083 32.9788 38.3564 32.8412 37.5542L30.7511 25.3681L39.6049 16.7378C39.9613 16.3903 40.0895 15.8707 39.9358 15.3973Z" fill="#F7AC16"/>
<path d="M30.7512 25.3681L20 21.8748L7.67908 38.8332C8.08173 39.1257 8.61548 39.1643 9.05611 38.9327L20 33.1793C31.9145 39.443 31.0962 39.083 31.5523 39.083C32.3582 39.083 32.9788 38.3564 32.8412 37.5542L30.7512 25.3681Z" fill="#F2D422"/>
<path d="M7.67908 38.8332C8.08173 39.1257 8.61548 39.1643 9.05611 38.9327L20 33.1793C31.9145 39.443 31.0962 39.083 31.5523 39.083C31.8234 39.083 32.0932 38.9987 32.321 38.8332L20 21.8748L7.67908 38.8332Z" fill="#F7AC16"/>
<path d="M20.0001 21.875L20 21.8748L7.67908 38.8332C8.08173 39.1257 8.61548 39.1643 9.05611 38.9327L20 33.1793H20.0001V21.875Z" fill="#F2D422"/>
<path d="M12.5265 32.1613L7.67908 38.8332C8.08173 39.1257 8.61548 39.1643 9.05611 38.9327L12.2738 37.241C11.9428 36.9429 11.7833 36.4941 11.8597 36.049L12.5265 32.1613Z" fill="#EFB616"/>
</g>
</g>
<defs>
<clipPath id="clip0_18_386">
<rect width="40" height="40" fill="white"/>
</clipPath>
<clipPath id="clip1_18_386">
<rect width="40" height="40" fill="white"/>
</clipPath>
</defs>
</svg>
