<svg width="40" height="40" viewBox="0 0 40 40" fill="none" xmlns="http://www.w3.org/2000/svg">
<path fill-rule="evenodd" clip-rule="evenodd" d="M22 1.15499L35.32 8.84499C35.9281 9.19606 36.433 9.70099 36.7841 10.3091C37.1351 10.9171 37.32 11.6069 37.32 12.309V27.691C37.32 28.3931 37.1351 29.0829 36.7841 29.6909C36.433 30.299 35.9281 30.8039 35.32 31.155L22 38.845C21.3919 39.1961 20.7021 39.3809 20 39.3809C19.2978 39.3809 18.6081 39.1961 18 38.845L4.67999 31.155C4.07193 30.8039 3.56699 30.299 3.21592 29.6909C2.86484 29.0829 2.68001 28.3931 2.67999 27.691V12.309C2.68001 11.6069 2.86484 10.9171 3.21592 10.3091C3.56699 9.70099 4.07193 9.19606 4.67999 8.84499L18 1.15499C18.6081 0.80392 19.2978 0.619095 20 0.619095C20.7021 0.619095 21.3919 0.80392 22 1.15499Z" fill="url(#paint0_linear_18_425)"/>
<path fill-rule="evenodd" clip-rule="evenodd" d="M24.198 26.417C23.022 26.842 21.931 26.681 21.446 26.617C21.086 26.5639 20.7278 26.4991 20.372 26.423L19.657 29.09L18.015 28.65L18.718 26.026L17.468 25.691L16.765 28.315L15.123 27.875L15.826 25.251L12.596 24.385L13.462 22.503L14.444 22.767C14.774 22.855 14.92 22.861 15.093 22.768C15.266 22.674 15.35 22.483 15.393 22.322L17.213 15.528C17.328 15.102 17.324 14.978 17.187 14.707C17.05 14.435 16.597 14.283 16.338 14.214L15.389 13.959L15.846 12.255L19.076 13.12L19.781 10.488L21.423 10.928L20.718 13.56L21.968 13.895L22.674 11.263L24.316 11.703L23.602 14.367C24.806 14.771 25.655 15.248 26.292 16.049C27.117 17.084 26.71 18.389 26.602 18.698C26.495 19.006 26.195 19.575 25.814 19.892C25.433 20.21 24.653 20.42 24.653 20.42C24.653 20.42 25.405 20.803 25.853 21.375C26.299 21.947 26.515 22.802 26.199 23.885C25.885 24.969 25.372 25.991 24.198 26.417ZM20.79 20.717C19.991 20.446 18.934 20.22 18.934 20.22L17.99 23.742C17.99 23.742 19.073 24.057 19.817 24.199C20.56 24.34 21.361 24.358 21.793 24.251C22.223 24.144 22.763 23.943 22.979 23.138C23.195 22.332 22.749 21.851 22.482 21.615C22.217 21.379 21.589 20.989 20.79 20.718V20.717ZM20.737 18.952C21.342 19.089 22.016 19.122 22.544 18.992C23.072 18.862 23.44 18.532 23.585 17.93C23.73 17.328 23.467 16.714 22.847 16.326C22.227 15.938 21.779 15.801 21.267 15.656C20.755 15.511 20.221 15.416 20.221 15.416L19.371 18.586C19.371 18.586 20.133 18.814 20.737 18.952Z" fill="white"/>
<g clip-path="url(#clip0_18_425)">
<path fill-rule="evenodd" clip-rule="evenodd" d="M22 1.15299L35.32 8.84299C35.9281 9.19406 36.433 9.69899 36.7841 10.3071C37.1351 10.9151 37.32 11.6049 37.32 12.307V27.69C37.32 28.3921 37.1351 29.0819 36.7841 29.6899C36.433 30.298 35.9281 30.8029 35.32 31.154L22 38.843C21.3919 39.1941 20.7021 39.3789 20 39.3789C19.2978 39.3789 18.6081 39.1941 18 38.843L4.67999 31.153C4.07193 30.8019 3.56699 30.297 3.21592 29.6889C2.86484 29.0809 2.68001 28.3911 2.67999 27.689V12.307C2.68001 11.6049 2.86484 10.9151 3.21592 10.3071C3.56699 9.69899 4.07193 9.19406 4.67999 8.84299L18 1.15299C18.6081 0.801921 19.2978 0.617096 20 0.617096C20.7021 0.617096 21.3919 0.801921 22 1.15299Z" fill="url(#paint1_linear_18_425)"/>
<path d="M21.91 16.857V14.868H27.661V12H12.341V14.868H18.091V16.857C14.052 17.071 11.023 17.943 11 18.989V21.171C11.023 22.217 14.052 23.09 18.091 23.303V28.185H21.909V23.303C25.948 23.091 28.977 22.217 29 21.171V18.989C28.977 17.943 25.949 17.071 21.91 16.857ZM20 21.803C15.69 21.803 12.088 21.066 11.207 20.079C11.955 19.244 14.658 18.586 18.093 18.404V20.488C19.3655 20.5531 20.6405 20.5531 21.913 20.488V18.404C25.345 18.584 28.05 19.244 28.797 20.079C27.915 21.066 24.313 21.803 20.003 21.803H20Z" fill="white"/>
<g clip-path="url(#clip1_18_425)">
<path d="M20 0C31.0452 0 40 8.9548 40 20C40 31.0452 31.0448 40 20 40C8.9552 40 0 31.0476 0 20C0 8.9524 8.9536 0 20 0Z" fill="#53AE94"/>
<path d="M22.4684 17.3352V14.36H29.272V9.8268H10.7456V14.36H17.55V17.3328C12.02 17.5868 7.862 18.682 7.862 19.994C7.862 21.306 12.022 22.4012 17.55 22.6568V32.1868H22.47V22.656C27.99 22.4012 32.1396 21.3068 32.1396 19.996C32.1396 18.6852 27.99 17.5908 22.47 17.336M22.47 21.8488V21.8464C22.3312 21.8552 21.618 21.898 20.03 21.898C18.7604 21.898 17.8672 21.862 17.5524 21.8456V21.8496C12.6668 21.6332 9.02 20.7824 9.02 19.7644C9.02 18.7464 12.6672 17.8968 17.5524 17.68V21.002C17.8724 21.024 18.7876 21.078 20.0508 21.078C21.568 21.078 22.3308 21.0148 22.4708 21.002V17.68C27.3468 17.8972 30.9852 18.7488 30.9852 19.7632C30.9852 20.7776 27.3452 21.6296 22.4708 21.8468" fill="white"/>
</g>
</g>
<defs>
<linearGradient id="paint0_linear_18_425" x1="3988.95" y1="2994.08" x2="825.93" y2="1632.9" gradientUnits="userSpaceOnUse">
<stop stop-color="#FE9D39"/>
<stop offset="1" stop-color="#FFC82D"/>
</linearGradient>
<linearGradient id="paint1_linear_18_425" x1="2.99999" y1="5.49999" x2="31" y2="36.5" gradientUnits="userSpaceOnUse">
<stop stop-color="#3FC6C6"/>
<stop offset="1" stop-color="#16A5A5"/>
</linearGradient>
<clipPath id="clip0_18_425">
<rect width="40" height="40" fill="white"/>
</clipPath>
<clipPath id="clip1_18_425">
<rect width="40" height="40" fill="white"/>
</clipPath>
</defs>
</svg>
