<svg width="14" height="14" viewBox="0 0 14 14" fill="none" xmlns="http://www.w3.org/2000/svg">
<path d="M13.445 9.5769H12.4068C11.0276 9.5769 9.86605 8.5387 9.74979 7.21764C9.68457 6.46265 9.96034 5.70766 10.5119 5.17066C10.9766 4.69143 11.6224 4.42311 12.3196 4.42311H13.4446C13.6552 4.42311 13.8292 4.24871 13.8076 4.03852C13.6477 2.27439 12.4791 1.0696 10.744 0.866141C10.5696 0.837076 10.3882 0.829987 10.1996 0.829987H3.66662C3.46351 0.829987 3.2675 0.844519 3.07857 0.873585C1.2276 1.1054 0.0369873 2.48459 0.0369873 4.45926V9.54074C0.0369873 11.5441 1.66323 13.1704 3.66662 13.1704H10.1999C12.2324 13.1704 13.6336 11.9 13.808 9.96184C13.8296 9.75129 13.6555 9.57725 13.445 9.57725V9.5769ZM8.02217 5.36667H3.66662C3.36887 5.36667 3.12217 5.11997 3.12217 4.82222C3.12217 4.52448 3.36887 4.27778 3.66662 4.27778H8.02217C8.31991 4.27778 8.56662 4.52448 8.56662 4.82222C8.56662 5.11997 8.31991 5.36667 8.02217 5.36667Z" fill="white"/>
</svg>
