<svg width="20" height="20" viewBox="0 0 20 20" fill="none" xmlns="http://www.w3.org/2000/svg">
<path d="M15.7833 4.51666L11.4749 2.025C10.6499 1.55 9.35828 1.55 8.53328 2.025L4.18328 4.53333C2.45828 5.7 2.35828 5.875 2.35828 7.73333V12.2583C2.35828 14.1167 2.45828 14.3 4.21661 15.4833L8.52494 17.975C8.94161 18.2167 9.47494 18.3333 9.99994 18.3333C10.5249 18.3333 11.0583 18.2167 11.4666 17.975L15.8166 15.4667C17.5416 14.3 17.6416 14.125 17.6416 12.2667V7.73333C17.6416 5.875 17.5416 5.7 15.7833 4.51666ZM9.99994 12.7083C8.50828 12.7083 7.29161 11.4917 7.29161 10C7.29161 8.50833 8.50828 7.29166 9.99994 7.29166C11.4916 7.29166 12.7083 8.50833 12.7083 10C12.7083 11.4917 11.4916 12.7083 9.99994 12.7083Z" fill="white"/>
</svg>
