<svg width="30" height="30" viewBox="0 0 30 30" fill="none" xmlns="http://www.w3.org/2000/svg">
<path d="M24.3875 7.3125L16.9625 3.025C15.75 2.325 14.25 2.325 13.025 3.025L5.61252 7.3125C4.40002 8.0125 3.65002 9.3125 3.65002 10.725V19.275C3.65002 20.675 4.40002 21.975 5.61252 22.6875L13.0375 26.975C14.25 27.675 15.75 27.675 16.975 26.975L24.4 22.6875C25.6125 21.9875 26.3625 20.6875 26.3625 19.275V10.725C26.35 9.3125 25.6 8.025 24.3875 7.3125ZM14.0625 9.6875C14.0625 9.175 14.4875 8.75 15 8.75C15.5125 8.75 15.9375 9.175 15.9375 9.6875V16.25C15.9375 16.7625 15.5125 17.1875 15 17.1875C14.4875 17.1875 14.0625 16.7625 14.0625 16.25V9.6875ZM16.15 20.7875C16.0875 20.9375 16 21.075 15.8875 21.2C15.65 21.4375 15.3375 21.5625 15 21.5625C14.8375 21.5625 14.675 21.525 14.525 21.4625C14.3625 21.4 14.2375 21.3125 14.1125 21.2C14 21.075 13.9125 20.9375 13.8375 20.7875C13.775 20.6375 13.75 20.475 13.75 20.3125C13.75 19.9875 13.875 19.6625 14.1125 19.425C14.2375 19.3125 14.3625 19.225 14.525 19.1625C14.9875 18.9625 15.5375 19.075 15.8875 19.425C16 19.55 16.0875 19.675 16.15 19.8375C16.2125 19.9875 16.25 20.15 16.25 20.3125C16.25 20.475 16.2125 20.6375 16.15 20.7875Z" fill="#F4AD5C"/>
</svg>
